<?xml version="1.0" encoding="utf-8"?>
<!-- Generator: Adobe Illustrator 19.0.0, SVG Export Plug-In . SVG Version: 6.00 Build 0)  -->
<svg version="1.1" id="Layer_1" xmlns:svg="http://www.w3.org/2000/svg"
	 xmlns="http://www.w3.org/2000/svg" xmlns:xlink="http://www.w3.org/1999/xlink" x="0px" y="0px" viewBox="-90 212.9 414 416"
	 style="enable-background:new -90 212.9 414 416;" xml:space="preserve">
<style type="text/css">
	.st0{fill:#007EC6;}
	.st1{fill:#263F78;}
	.st2{fill:#FFFFFF;}
</style>
<g>
	<path id="path3758" class="st0" d="M295.8,332.4c0.1,0,24.6,48.5,20.3,100.1l0,0c-2.4,86.7-79,185.1-193.2,188.3l-15.9-0.3
		C-10.7,614.7-83,514.8-82.7,424.6l0,0c0.3-16.8,0.2-35.5,7.3-58.7l7.2,2.2c30.2,11.4,62.7,99.5,168.5,104.5
		c4.6,0.2,13.4,0.4,13.4,0.5c-6.8,6.8-45.8,22.9-63.4,27.1c4.6-1.1-0.4-0.1,0,0l0,0c42.5,26.4,85.1-24.4,140.3-31.8l16.9-1
		c-3.2-10.2-17.8-9.3-19.2-9.2c-38.2,3.8-28.7-0.6-29.9-0.2c58.7-18.4,92.6-65.4,134.8-122.6L295.8,332.4z"/>
	<path id="path3766" class="st1" d="M210.4,244.6c-4.1-2.2-38.6-22.9-91.5-23.7C4.2,221.3-46.3,305.5-46.3,305.5
		c25.4,12.4,51.7,49.9,52.1,50.4c28.4,39.8,68,101.6,119.3,102.8c16.4,0.4,27.3-9.4,39.8-21.5c45.5-44.1,51.9-125.6,110.2-137.1
		C275.1,300.1,253.5,267.5,210.4,244.6z M83.3,298.5h13.6c5.5,0,9.9,4.4,9.9,9.9v32.9c0,5.5-4.4,9.9-9.9,9.9H83.3
		c-5.5,0-9.9-4.4-9.9-9.9v-32.8C73.4,302.9,77.8,298.5,83.3,298.5z M87,307.6h6.4c1.3,0,2.3,1,2.3,2.3v30c0,1.3-1,2.3-2.3,2.3H87
		c-1.3,0-2.3-1-2.3-2.3v-30C84.7,308.6,85.7,307.6,87,307.6z M126.5,298.5c-5.5,0-9.9,4.4-9.9,9.9v42.7h11.3V330h10.9v21.1h11.3
		v-42.7c0-5.5-4.4-9.9-9.9-9.9H126.5z M130.1,307.5h6.3c1.3,0,2.3,1,2.3,2.3V321h-10.9v-11.2C127.8,308.6,128.8,307.5,130.1,307.5z
		 M169.6,298.5c-5.5,0-9.9,4.4-9.9,9.9v42.7H171V330h10.9v21.1h11.3v-42.7c0-5.5-4.4-9.9-9.9-9.9H169.6z M173.2,307.5h6.3
		c1.3,0,2.3,1,2.3,2.3V321h-10.9v-11.2C170.9,308.6,171.9,307.5,173.2,307.5z M30.3,298.5v52.7h11.3v-41.3c0-1.3,1-2.3,2.3-2.3h6.4
		c1.3,0,2.3,1,2.3,2.3v41.3h11.3v-42.7c0-5.5-4.4-9.9-9.9-9.9H30.3V298.5z"/>
	<path class="st2" d="M97,298.5H83.4c-5.5,0-9.9,4.4-9.9,9.9v32.9c0,5.5,4.4,9.9,9.9,9.9H97c5.5,0,9.9-4.4,9.9-9.9v-32.8
		C106.9,302.9,102.5,298.5,97,298.5z M95.6,339.9c0,1.3-1,2.3-2.3,2.3h-6.4c-1.3,0-2.3-1-2.3-2.3v-30c0-1.3,1-2.3,2.3-2.3h6.4
		c1.3,0,2.3,1,2.3,2.3V339.9z"/>
	<path class="st2" d="M53.8,298.5H30.3v52.7h11.3v-41.3c0-1.3,1-2.3,2.3-2.3h6.4c1.3,0,2.3,1,2.3,2.3v41.3h11.3v-42.7
		C63.8,303,59.3,298.5,53.8,298.5z"/>
	<path class="st2" d="M140.1,298.5h-13.6c-5.5,0-9.9,4.4-9.9,9.9v42.7h11.3V330h10.9v21.1h11.3v-42.7
		C150,303,145.6,298.5,140.1,298.5z M138.7,321h-10.9v-11.2c0-1.3,1-2.3,2.3-2.3h6.3c1.3,0,2.3,1,2.3,2.3L138.7,321L138.7,321z"/>
	<path class="st2" d="M183.2,298.5h-13.6c-5.5,0-9.9,4.4-9.9,9.9v42.7H171V330h10.9v21.1h11.3v-42.7
		C193.1,303,188.7,298.5,183.2,298.5z M181.8,321h-10.9v-11.2c0-1.3,1-2.3,2.3-2.3h6.3c1.3,0,2.3,1,2.3,2.3V321L181.8,321z"/>
</g>
</svg>
