<?xml version="1.0" encoding="UTF-8" standalone="no"?>
<!-- Created with Inkscape (http://www.inkscape.org/) -->
<svg xmlns:dc="http://purl.org/dc/elements/1.1/" xmlns:cc="http://creativecommons.org/ns#" xmlns:rdf="http://www.w3.org/1999/02/22-rdf-syntax-ns#" xmlns:svg="http://www.w3.org/2000/svg" xmlns="http://www.w3.org/2000/svg" xmlns:sodipodi="http://sodipodi.sourceforge.net/DTD/sodipodi-0.dtd" xmlns:inkscape="http://www.inkscape.org/namespaces/inkscape" id="svg2" version="1.1" inkscape:version="0.48.2 r9819" width="38" height="38" xml:space="preserve" sodipodi:docname="Kishō-chō (JMA) Logo.svg"><metadata id="metadata8"><rdf:RDF><cc:Work rdf:about=""><dc:format>image/svg+xml</dc:format><dc:type rdf:resource="http://purl.org/dc/dcmitype/StillImage"/><dc:title/></cc:Work></rdf:RDF></metadata><defs id="defs6"/><sodipodi:namedview pagecolor="#ffffff" bordercolor="#666666" borderopacity="1" objecttolerance="10" gridtolerance="10" guidetolerance="10" inkscape:pageopacity="0" inkscape:pageshadow="2" inkscape:window-width="1920" inkscape:window-height="1005" id="namedview4" showgrid="false" fit-margin-top="0" fit-margin-left="0" fit-margin-right="0" fit-margin-bottom="0" inkscape:zoom="21.838597" inkscape:cx="12.083225" inkscape:cy="20.079128" inkscape:window-x="-9" inkscape:window-y="-9" inkscape:window-maximized="1" inkscape:current-layer="g10"/><g id="g10" inkscape:groupmode="layer" inkscape:label="tokai_leaflet" transform="matrix(1.25,0,0,-1.25,-482.02285,61.942482)"><g id="g220" transform="translate(402.60199,48.238993)"><path d="m 0,0 c 3.279,-0.866 6.277,-2.351 8.806,-4.886 3.099,-3.062 4.638,-7.236 3.689,-11.628 -0.9,-4.39 -4.918,-8.225 -8.937,-9.989 -2.908,-1.33 -6.097,-2.01 -9.555,-1.979 -4.119,0.031 -8.137,2.474 -9.686,6.341 -1.08,2.504 -0.8,5.875 0.62,8.132 2.259,3.681 6.247,5.382 10.515,4.979 3.648,-0.371 7.327,-2.844 8.626,-6.433 0.56,-1.36 0.74,-3.029 0.53,-4.606 -0.339,-2.443 -1.669,-4.577 -3.648,-6.155 -0.78,-0.618 -1.64,-1.05 -2.479,-1.454 l 0.28,0.031 c 3.058,1.084 5.997,3.803 7.456,6.743 1.7,3.123 2.099,7.36 1.14,10.947 -0.9,3.772 -3.709,7.452 -7.297,9.246 -1.359,0.68 -2.819,1.144 -4.358,1.33 l -0.34,0.062 0.09,0.032 C -2.969,0.619 -1.459,0.372 0,0" style="fill:#343467;fill-opacity:1;fill-rule:nonzero;stroke:none" id="path222" inkscape:connector-curvature="0"/></g><g id="g224" transform="translate(397.77399,48.918993)"><path d="M 0,0 0.061,0" style="fill:#221915;fill-opacity:1;fill-rule:nonzero;stroke:none" id="path226" inkscape:connector-curvature="0"/></g><g id="g228" transform="translate(405.97099,33.054993)"><path d="m 0,0 c 1.02,-2.041 1.02,-5.041 0.03,-7.113 -1.819,-3.864 -5.907,-5.937 -10.116,-5.597 -3.429,0.278 -6.857,2.351 -8.286,5.597 -1.199,2.382 -0.99,5.753 0.4,7.979 1.769,2.968 4.858,4.609 8.165,4.794 C -5.688,5.875 -1.729,3.772 0,0" style="fill:#ffffff;fill-opacity:1;fill-rule:nonzero;stroke:none" id="path230" inkscape:connector-curvature="0"/></g><g id="g232" transform="translate(403.56199,33.023993)"><path d="m 0,0 c 1.11,-1.794 1.289,-4.546 0.3,-6.433 -0.15,0.033 -0.239,0.186 -0.34,0.31 -0.21,0.372 -0.18,0.835 -0.21,1.3 -0.06,1.052 -0.03,2.195 -0.06,3.308 -0.1,1.022 -0.65,1.917 -1.459,2.598 -0.65,0.648 -1.64,0.742 -2.469,0.433 -0.74,-0.371 -1.24,-1.175 -1.27,-2.009 -0.06,-1.672 0.03,-3.341 0,-5.012 0,-0.494 -0.369,-0.958 -0.799,-1.142 -0.41,-0.157 -0.9,-0.093 -1.21,0.154 -0.34,0.246 -0.47,0.618 -0.559,0.988 -0.06,1.701 0.029,3.435 -0.03,5.134 -0.06,0.712 -0.5,1.392 -1.11,1.764 -0.53,0.307 -1.369,0.371 -1.949,0.123 -1.21,-0.681 -2.139,-1.887 -2.169,-3.279 0,-1.267 0.09,-2.659 -0.03,-3.895 -0.06,-0.31 -0.22,-0.589 -0.43,-0.805 l -0.06,0 c -0.87,1.609 -0.93,3.958 -0.16,5.627 1.24,2.877 4.268,4.608 7.387,4.548 C -3.958,3.588 -1.459,2.319 0,0" style="fill:#343467;fill-opacity:1;fill-rule:nonzero;stroke:none" id="path234" inkscape:connector-curvature="0"/></g><g id="g236" transform="translate(402.29199,33.084993)"><path d="m 0,0 c 0.239,-0.433 0.399,-0.927 0.43,-1.453 l 0.03,-4.145 c 0.1,-0.555 0.25,-1.111 0.738,-1.483 L 1.139,-7.267 C 0.93,-7.327 0.8,-7.019 0.649,-6.865 0.34,-6.431 0.18,-5.905 0.18,-5.319 L 0.149,-1.02 C 0.06,-0.278 -0.4,0.496 -1.12,0.805 c -0.4,0.216 -0.989,0.216 -1.359,-0.061 -0.55,-0.34 -0.831,-0.93 -0.831,-1.547 -0.03,-1.609 0.031,-3.247 0.031,-4.856 -0.061,-0.803 -0.619,-1.608 -1.4,-1.917 -0.639,-0.279 -1.508,-0.185 -2.098,0.249 -0.58,0.432 -0.93,1.081 -0.96,1.791 -0.061,1.579 -0.031,3.186 -0.031,4.763 0.031,0.743 -0.518,1.361 -1.138,1.67 -0.62,0.187 -1.24,-0.092 -1.669,-0.555 -0.41,-0.434 -0.65,-0.96 -0.681,-1.578 l 0.031,-4.423 c -0.06,-0.65 -0.31,-1.267 -0.871,-1.668 l -0.12,0.154 0,0.062 c 0.58,0.495 0.771,1.175 0.71,1.947 l 0,4.021 c 0.151,0.957 0.87,1.979 1.89,2.196 0.739,0.155 1.42,-0.156 1.789,-0.774 0.25,-0.403 0.37,-0.833 0.34,-1.33 -0.031,-1.546 0,-3.123 0.059,-4.639 0.071,-0.741 0.62,-1.452 1.361,-1.669 0.678,-0.217 1.428,-0.032 1.919,0.494 0.339,0.371 0.559,0.806 0.559,1.329 l 0,4.826 c 0.061,0.68 0.4,1.359 1.079,1.67 C -1.55,1.393 -0.53,0.836 0,0" style="fill:#343467;fill-opacity:1;fill-rule:nonzero;stroke:none" id="path238" inkscape:connector-curvature="0"/></g><g id="g240" transform="translate(401.73199,32.499993)"><path d="M 0,0 C 0.12,-0.249 0.16,-0.559 0.16,-0.869 L 0.19,-5.228 C 0.311,-5.97 0.59,-6.651 1.179,-7.176 1.329,-7.3 1.12,-7.424 1.05,-7.517 c -2.07,-2.318 -5.228,-3.123 -8.227,-2.318 -1.479,0.401 -2.869,1.206 -3.958,2.504 0.13,0.185 0.31,0.34 0.47,0.557 0.369,0.527 0.619,1.144 0.589,1.855 l -0.04,4.267 c 0.07,0.558 0.31,1.084 0.81,1.394 0.25,0.122 0.59,0.185 0.831,0 0.339,-0.219 0.558,-0.59 0.619,-0.96 -0.061,-1.701 0,-3.402 0.029,-5.103 0.13,-1.02 0.931,-1.979 1.92,-2.35 1.05,-0.371 2.289,-0.094 3.028,0.742 0.56,0.557 0.81,1.268 0.81,2.072 -0.03,1.576 -0.03,3.154 0,4.7 0.03,0.433 0.341,0.774 0.68,0.991 C -0.77,1.019 -0.21,0.523 0,0" style="fill:#343467;fill-opacity:1;fill-rule:nonzero;stroke:none" id="path242" inkscape:connector-curvature="0"/></g></g></svg>